<?xml version="1.0" encoding="UTF-8" standalone="no"?>
<svg
   width="64.650002"
   height="64.650002"
   viewBox="0 0 64.650002 64.650002"
   version="1.1"
   id="svg22"
   xmlns="http://www.w3.org/2000/svg"
   xmlns:svg="http://www.w3.org/2000/svg">
  <defs
     id="defs26" />
  <path
     fill-rule="evenodd"
     fill="#0081de"
     fill-opacity="0.2"
     d="M 23.836719,0.32499999 V 64.325 h 6.78125 V 0.32499999 Z m 0,0"
     id="path2" />
  <path
     fill-rule="evenodd"
     fill="#0081de"
     fill-opacity="0.2"
     d="M 40.813281,64.325 V 0.32499999 h -6.78125 V 64.325 Z m 0,0"
     id="path4" />
  <path
     fill-rule="evenodd"
     fill="#0081de"
     fill-opacity="0.2"
     d="m 54.371875,18.485156 h -6.777344 v 27.679688 h 6.777344 z m 0,0"
     id="path6" />
  <path
     fill-rule="evenodd"
     fill="#0081de"
     fill-opacity="0.2"
     d="m 10.278125,46.164844 h 6.777344 V 18.485156 h -6.777344 z m 0,0"
     id="path8" />
  <path
     fill-rule="evenodd"
     fill="#00a2de"
     fill-opacity="0.2"
     d="M 0.32499999,40.813281 H 64.325 v -6.78125 H 0.32499999 Z m 0,0"
     id="path10" />
  <path
     fill-rule="evenodd"
     fill="#00a2de"
     fill-opacity="0.2"
     d="M 46.164844,54.371875 V 47.594531 H 18.485156 v 6.777344 z m 0,0"
     id="path12" />
  <path
     fill-rule="evenodd"
     fill="#00a2de"
     fill-opacity="0.2"
     d="M 64.325,23.836719 H 0.32499999 v 6.78125 H 64.325 Z m 0,0"
     id="path14" />
  <path
     fill-rule="evenodd"
     fill="#00a2de"
     fill-opacity="0.2"
     d="m 18.485156,10.278125 v 6.777344 h 27.679688 v -6.777344 z m 0,0"
     id="path16" />
  <path
     fill="none"
     stroke-width="0.65"
     stroke-linecap="round"
     stroke-linejoin="miter"
     stroke="#999999"
     stroke-opacity="1"
     stroke-miterlimit="10"
     d="M 10.27812,46.16484 V 40.81328 H 0.32499999 V 34.03203 H 10.27812 V 30.61797 H 0.32499999 V 23.83672 H 10.27812 v -5.35156 h 6.77735 v 5.35156 h 6.78125 v -6.78125 h -5.35156 v -6.77734 h 5.35156 V 0.32499999 h 6.78125 V 10.27813 h 3.41406 V 0.32499999 h 6.78125 V 10.27813 h 5.35156 v 6.77734 h -5.35156 v 6.78125 h 6.78125 v -5.35156 h 6.78125 v 5.35156 H 64.325 v 6.78125 h -9.94922 v 3.41406 H 64.325 v 6.78125 h -9.94922 v 5.35156 h -6.78125 v -5.35156 h -6.78125 v 6.78125 h 5.35156 v 6.78125 H 40.81328 V 64.325 H 34.03203 V 54.37578 H 30.61797 V 64.325 h -6.78125 v -9.94922 h -5.35156 v -6.78125 h 5.35156 v -6.78125 h -6.78125 v 5.35156 z m 0,0"
     id="path18" />
  <path
     fill="none"
     stroke-width="0.8"
     stroke-linecap="round"
     stroke-linejoin="miter"
     stroke="#333333"
     stroke-opacity="1"
     stroke-miterlimit="10"
     d="M 32.325,49.30156 15.34844,32.325 32.325,15.34844 49.30156,32.325 Z m 0,0"
     id="path20" />
</svg>
